<svg width="155" height="140" viewBox="0 0 155 140" fill="none" xmlns="http://www.w3.org/2000/svg">
<path d="M62.9071 79.5879L41.3777 92.0179C36.5539 94.8029 30.6139 94.8145 25.7877 92.0352C24.7531 91.4432 23.7804 90.8385 22.6881 90.1066C17.6272 86.7008 13.0284 82.6355 9.0375 78.023C3.55284 71.6633 -1.86991 63.0509 6.51336 60.7511C6.51336 60.7511 46.21 52.4277 67.6832 64.4405C67.6832 64.4405 68.9892 84.1824 87.9123 88.1181" stroke="#F26522" stroke-width="3" stroke-miterlimit="10" stroke-linecap="round"/>
<path d="M87.9062 88.1091L98.3012 106.114" stroke="#F26522" stroke-width="3" stroke-miterlimit="10" stroke-linecap="round"/>
<path d="M67.6763 64.4303C67.6763 64.4303 67.2989 59.6368 69.7003 56.576" stroke="#F26522" stroke-width="3" stroke-miterlimit="10" stroke-linecap="round"/>
<path d="M93.0377 62.1935L114.567 49.7635C119.391 46.9785 122.371 41.8401 122.377 36.2708C122.382 35.0788 122.344 33.9341 122.257 32.6222C121.838 26.5364 120.616 20.5211 118.617 14.7586C115.852 6.82894 111.105 -2.17355 104.921 3.93671C104.921 3.93671 77.8648 34.1533 77.5315 58.7561C77.5315 58.7561 93.9756 69.758 87.9225 88.1137" stroke="#F26522" stroke-width="3" stroke-miterlimit="10" stroke-linecap="round"/>
<path d="M77.5152 58.7505C77.5152 58.7505 73.5525 56.0269 69.7012 56.5762" stroke="#F26522" stroke-width="3" stroke-miterlimit="10" stroke-linecap="round"/>
<path d="M63.2157 55.1224C63.2157 55.1224 53.9786 50.0632 40.4199 46.3789" stroke="#F26522" stroke-width="3" stroke-miterlimit="10" stroke-linecap="round"/>
<path d="M71.6901 50.2371C71.6901 50.2371 71.9272 39.7079 75.5159 26.1236" stroke="#F26522" stroke-width="3" stroke-miterlimit="10" stroke-linecap="round"/>
<path d="M87.5633 101.253C87.5592 109.246 83.42 117.017 75.9981 121.302C64.939 127.687 50.8006 123.898 44.4156 112.839C40.3006 105.712 40.4095 97.3002 43.9764 90.5182" stroke="#F26522" stroke-width="3" stroke-miterlimit="10" stroke-linecap="round"/>
<path d="M99.4688 94.3779C106.393 98.3708 115.192 98.6714 122.614 94.3864C133.673 88.0014 137.461 73.8631 131.076 62.8039C126.961 55.6765 119.623 51.5652 111.966 51.2631" stroke="#F26522" stroke-width="3" stroke-miterlimit="10" stroke-linecap="round"/>
<path d="M75.7568 94.7425C79.3668 100.995 77.2305 108.995 70.9692 112.61C64.7078 116.225 56.7166 114.084 53.1016 107.823" stroke="#F26522" stroke-width="3" stroke-miterlimit="10" stroke-linecap="round"/>
<path d="M52.9366 68.0394C52.9366 68.0394 38.4567 63.0394 14.5862 67.8144C13.5638 68.0237 13.0741 69.1955 13.6461 70.0662C15.633 73.0875 20.3207 79.3069 28.008 84.2217" stroke="#F26522" stroke-width="3" stroke-miterlimit="10" stroke-linecap="round"/>
<path d="M99.7305 80.9043C103.34 87.157 111.337 89.3069 117.598 85.6919C123.851 82.0819 126.001 74.0857 122.386 67.8243" stroke="#F26522" stroke-width="3" stroke-miterlimit="10" stroke-linecap="round"/>
<path d="M88.0205 47.7833C88.0205 47.7833 90.9304 32.7434 107.001 14.4584C107.693 13.6776 108.953 13.8394 109.421 14.7701C111.044 18.0014 114.086 25.1708 114.499 34.2856" stroke="#F26522" stroke-width="3" stroke-miterlimit="10" stroke-linecap="round"/>
</svg>
