<svg width="186" height="173" viewBox="0 0 186 173" fill="none" xmlns="http://www.w3.org/2000/svg">
<path d="M88.9276 75.7797C57.9796 105.154 58.985 150.964 63.3561 170.197C157.118 178.721 184.001 100.696 184.001 42.3401C165.205 41.2473 119.876 46.4053 88.9276 75.7797Z" stroke="#9BCE70" stroke-width="4"/>
<path d="M63.3553 170.854C6.31126 132.824 -21.8829 75.7803 27.293 3C62.4373 17.6872 81.7142 58.5141 86.9596 77.0916" stroke="#9BCE70" stroke-width="4"/>
<path d="M63.3555 170.199C95.4837 119.711 107.286 105.942 157.117 66.6016" stroke="#9BCE70" stroke-width="4"/>
<path d="M84.3359 139.382C92.4226 140.256 113.055 139.513 130.889 129.547" stroke="#9BCE70" stroke-width="4"/>
<path d="M103.351 113.811C101.252 102.795 104.662 86.9279 106.629 80.3711" stroke="#9BCE70" stroke-width="4"/>
<path d="M27.9492 3C32.1018 13.928 41.8496 44.3077 47.6196 78.403" stroke="#9BCE70" stroke-width="4"/>
</svg>
